<?xml version="1.0" encoding="UTF-8"?>
<svg width="50px" height="50px" viewBox="0 0 50 50" version="1.1" xmlns="http://www.w3.org/2000/svg" xmlns:xlink="http://www.w3.org/1999/xlink" style="background: #F2F2F2;">
    <!-- Generator: Sketch 42 (36781) - http://www.bohemiancoding.com/sketch -->
    <title>profile_picture</title>
    <desc>Created with Sketch.</desc>
    <defs></defs>
    <g id="Page-1" stroke="none" stroke-width="1" fill="none" fill-rule="evenodd" stroke-linecap="round" opacity="0.200000003" stroke-linejoin="round">
        <g id="profile_picture" stroke="#303C42">
            <g id="male-user-person-symbol-3" transform="translate(13.000000, 13.000000)">
                <g id="Male-User-Circle">
                    <g id="Male_User_Circle">
                        <g id="_Group_">
                            <circle id="_Path_" cx="12" cy="12" r="11.5"></circle>
                            <path d="M18.48,21.49 L18.3,21.43 C17.4567647,21.1470156 16.7319015,20.5910525 16.24,19.85 L16,19.5 L15,19.5 L14.5,17.5 C15.29852,16.6794032 15.8226346,15.6311741 16,14.5 C16.67,14.5 17,11.89 17,11.5 C17,11.11 16.83,10.25 16.25,10.25 C16.7595933,9.61304271 17.0255003,8.81532184 17,8 L17.5,7.5 C17.5,5.67 15.67,3.5 12.5,3.5 C10.25,3.5 9.5,4.5 9.5,4.5 C8.35223929,4.79689487 7.53770606,5.81506141 7.5,7 C7.5,8.08 7.43,9.93 7.75,10.25 C7.17,10.25 7,11.11 7,11.5 C7,11.89 7.33,14.5 8,14.5 C8.17736544,15.6311741 8.70148001,16.6794032 9.5,17.5 L9,19.5 L8,19.5 L7.76,19.86 C7.26646069,20.5973174 6.54178615,21.1496179 5.7,21.43 L5.52,21.49" id="_Path_2"></path>
                        </g>
                    </g>
                </g>
            </g>
        </g>
    </g>
</svg>