<?xml version="1.0" encoding="UTF-8"?>
<svg width="191px" height="119px" viewBox="0 0 191 119" version="1.1" xmlns="http://www.w3.org/2000/svg" xmlns:xlink="http://www.w3.org/1999/xlink">
    <!-- Generator: Sketch 42 (36781) - http://www.bohemiancoding.com/sketch -->
    <title>tp_logo</title>
    <desc>Created with Sketch.</desc>
    <defs></defs>
    <g id="•-Trusted-Parents" stroke="none" stroke-width="1" fill="none" fill-rule="evenodd">
        <g id="Signup-02" transform="translate(-84.000000, -130.000000)">
            <g id="tp_logo" transform="translate(84.000000, 130.000000)">
                <path d="M165.895374,116.097299 C166.515438,116.097299 166.895373,115.913944 167.16325,115.66056 L166.853218,114.869939 C166.712342,115.025497 166.431126,115.152189 166.134968,115.152189 C165.670187,115.152189 165.445,114.786012 165.445,114.278176 L165.445,110.046561 L166.824936,110.046561 L166.824936,109.114815 L165.445,109.114815 L165.445,107.253461 L164.388971,107.253461 L164.388971,109.114815 L163.262503,109.114815 L163.262503,110.046561 L164.388971,110.046561 L164.388971,114.503762 C164.388971,115.5189 164.895907,116.097299 165.895374,116.097299 L165.895374,116.097299 Z M162.065599,115.928377 L162.065599,109.114815 L161.010636,109.114815 L161.010636,114.123152 C160.615225,114.672685 159.827606,115.152189 158.996229,115.152189 C158.081074,115.152189 157.475952,114.799376 157.475952,113.600882 L157.475952,109.114815 L156.419922,109.114815 L156.419922,113.925363 C156.419922,115.406107 157.166453,116.097299 158.588545,116.097299 C159.602419,116.097299 160.488758,115.561666 161.010636,114.968833 L161.010636,115.928377 L162.065599,115.928377 Z M151.336679,115.152189 C149.886306,115.152189 149.06987,113.91093 149.06987,112.514647 C149.06987,111.132262 149.886306,109.891538 151.336679,109.891538 C152.787052,109.891538 153.58908,111.132262 153.58908,112.514647 C153.58908,113.91093 152.787052,115.152189 151.336679,115.152189 L151.336679,115.152189 Z M151.336679,116.097299 C153.406582,116.097299 154.701673,114.489329 154.701673,112.514647 C154.701673,110.539965 153.406582,108.945893 151.336679,108.945893 C149.266775,108.945893 147.971685,110.539965 147.971685,112.514647 C147.971685,114.489329 149.266775,116.097299 151.336679,116.097299 L151.336679,116.097299 Z M141.142444,115.928377 L141.142444,111.10393 C141.451943,110.553863 142.338815,110.017695 142.986627,110.017695 C143.155784,110.017695 143.282252,110.032128 143.409253,110.06046 L143.409253,108.974225 C142.479691,108.974225 141.691537,109.49596 141.142444,110.215484 L141.142444,109.114815 L140.086415,109.114815 L140.086415,115.928377 L141.142444,115.928377 Z M137.340417,112.091806 L132.876704,112.091806 C132.933268,111.047801 133.651517,109.820441 135.101357,109.820441 C136.65045,109.820441 137.326543,111.075599 137.340417,112.091806 L137.340417,112.091806 Z M135.228358,116.097299 C136.340951,116.097299 137.255572,115.730588 137.931666,115.053829 L137.424729,114.362637 C136.890044,114.912169 136.101357,115.222752 135.327077,115.222752 C133.86283,115.222752 132.96155,114.150949 132.876704,112.867459 L138.382039,112.867459 L138.382039,112.599643 C138.382039,110.553863 137.171794,108.945893 135.115765,108.945893 C133.172862,108.945893 131.764645,110.539965 131.764645,112.514647 C131.764645,114.644353 133.215018,116.097299 135.228358,116.097299 L135.228358,116.097299 Z M130.046929,115.928377 L130.046929,111.118898 C130.046929,109.637619 129.300931,108.945893 127.878306,108.945893 C126.850558,108.945893 125.92153,109.53819 125.442341,110.102691 L125.442341,106.520038 L124.386845,106.520038 L124.386845,115.928377 L125.442341,115.928377 L125.442341,110.948907 C125.850559,110.39884 126.639779,109.891538 127.456215,109.891538 C128.371369,109.891538 128.9909,110.243816 128.9909,111.442844 L128.9909,115.928377 L130.046929,115.928377 Z M121.964754,116.097299 C122.584284,116.097299 122.96422,115.913944 123.232096,115.66056 L122.922064,114.869939 C122.781189,115.025497 122.499972,115.152189 122.203815,115.152189 C121.739033,115.152189 121.513847,114.786012 121.513847,114.278176 L121.513847,110.046561 L122.893782,110.046561 L122.893782,109.114815 L121.513847,109.114815 L121.513847,107.253461 L120.458351,107.253461 L120.458351,109.114815 L119.33135,109.114815 L119.33135,110.046561 L120.458351,110.046561 L120.458351,114.503762 C120.458351,115.5189 120.964754,116.097299 121.964754,116.097299 L121.964754,116.097299 Z M115.163795,115.152189 C113.713422,115.152189 112.896986,113.91093 112.896986,112.514647 C112.896986,111.132262 113.713422,109.891538 115.163795,109.891538 C116.613634,109.891538 117.416196,111.132262 117.416196,112.514647 C117.416196,113.91093 116.613634,115.152189 115.163795,115.152189 L115.163795,115.152189 Z M115.163795,116.097299 C117.233698,116.097299 118.528789,114.489329 118.528789,112.514647 C118.528789,110.539965 117.233698,108.945893 115.163795,108.945893 C113.093891,108.945893 111.798801,110.539965 111.798801,112.514647 C111.798801,114.489329 113.093891,116.097299 115.163795,116.097299 L115.163795,116.097299 Z M106.448215,115.928377 L106.448215,111.118898 C106.448215,109.637619 105.701684,108.945893 104.279059,108.945893 C103.251311,108.945893 102.322282,109.53819 101.843627,110.102691 L101.843627,106.520038 L100.787597,106.520038 L100.787597,115.928377 L101.843627,115.928377 L101.843627,110.948907 C102.251311,110.39884 103.040532,109.891538 103.856967,109.891538 C104.772122,109.891538 105.391652,110.243816 105.391652,111.442844 L105.391652,115.928377 L106.448215,115.928377 Z M96.8169473,116.097299 C98.0560079,116.097299 98.7875979,115.589463 99.3094761,114.912169 L98.6051006,114.263742 C98.1547272,114.869939 97.5773527,115.152189 96.8729772,115.152189 C95.4231376,115.152189 94.5218571,114.024258 94.5218571,112.514647 C94.5218571,111.005571 95.4231376,109.891538 96.8729772,109.891538 C97.5773527,109.891538 98.1547272,110.159355 98.6051006,110.779984 L99.3094761,110.131023 C98.7875979,109.453729 98.0560079,108.945893 96.8169473,108.945893 C94.7891996,108.945893 93.4236717,110.4972 93.4236717,112.514647 C93.4236717,114.545993 94.7891996,116.097299 96.8169473,116.097299 L96.8169473,116.097299 Z M88.7769278,115.336079 C87.7913357,115.336079 87.1013678,114.714915 87.1013678,113.855335 C87.1013678,112.980253 87.7913357,112.359623 88.7769278,112.359623 C89.5234591,112.359623 90.241175,112.641339 90.6493927,113.205839 L90.6493927,114.489329 C90.241175,115.053829 89.5234591,115.336079 88.7769278,115.336079 L88.7769278,115.336079 Z M91.7059559,115.928377 L91.7059559,111.24559 C91.7059559,109.594854 90.5090512,108.945893 89.072552,108.945893 C87.9599589,108.945893 87.0869602,109.313139 86.3553701,110.074359 L86.8478994,110.807782 C87.4535556,110.159355 88.1147081,109.863206 88.9322105,109.863206 C89.917269,109.863206 90.6493927,110.384941 90.6493927,111.301185 L90.6493927,112.528545 C90.1002999,111.894552 89.3260205,111.597868 88.3969919,111.597868 C87.2422429,111.597868 86.0170565,112.317392 86.0170565,113.840367 C86.0170565,115.321646 87.2422429,116.097299 88.3969919,116.097299 C89.3121464,116.097299 90.0869595,115.773353 90.6493927,115.152189 L90.6493927,115.928377 L91.7059559,115.928377 Z M83.6515287,112.091806 L79.1878157,112.091806 C79.2443792,111.047801 79.9620952,109.820441 81.4124684,109.820441 C82.9620945,109.820441 83.6376546,111.075599 83.6515287,112.091806 L83.6515287,112.091806 Z M81.5394694,116.097299 C82.6515289,116.097299 83.5666835,115.730588 84.2427772,115.053829 L83.7363739,114.362637 C83.2011553,114.912169 82.4124682,115.222752 81.6376551,115.222752 C80.1734078,115.222752 79.272661,114.150949 79.1878157,112.867459 L84.6931507,112.867459 L84.6931507,112.599643 C84.6931507,110.553863 83.4829055,108.945893 81.4268761,108.945893 C79.48344,108.945893 78.0757562,110.539965 78.0757562,112.514647 C78.0757562,114.644353 79.5261294,116.097299 81.5394694,116.097299 L81.5394694,116.097299 Z M69.8665798,115.152189 C69.0357369,115.152189 68.204894,114.644353 67.8393658,114.052589 L67.8393658,110.977239 C68.204894,110.384941 69.0357369,109.891538 69.8665798,109.891538 C71.2326414,109.891538 72.0490767,111.005571 72.0490767,112.514647 C72.0490767,114.024258 71.2326414,115.152189 69.8665798,115.152189 L69.8665798,115.152189 Z M70.1339223,116.097299 C71.9226092,116.097299 73.1611362,114.714915 73.1611362,112.514647 C73.1611362,110.299945 71.9226092,108.945893 70.1339223,108.945893 C69.176612,108.945893 68.331895,109.439831 67.8393658,110.131023 L67.8393658,109.114815 L66.7833361,109.114815 L66.7833361,118.523689 L67.8393658,118.523689 L67.8393658,114.898805 C68.3884585,115.66056 69.2048937,116.097299 70.1339223,116.097299 L70.1339223,116.097299 Z M63.6152472,115.928377 L64.6712768,115.928377 L64.6712768,106.520038 L63.6152472,106.520038 L63.6152472,115.928377 Z M60.8692499,112.091806 L56.405537,112.091806 C56.4621004,111.047801 57.1798164,109.820441 58.6301896,109.820441 C60.1792821,109.820441 60.8553759,111.075599 60.8692499,112.091806 L60.8692499,112.091806 Z M58.7571906,116.097299 C59.8692502,116.097299 60.7844047,115.730588 61.4604985,115.053829 L60.9535616,114.362637 C60.4183429,114.912169 59.6296558,115.222752 58.8553763,115.222752 C57.3911291,115.222752 56.4903822,114.150949 56.405537,112.867459 L61.9108719,112.867459 L61.9108719,112.599643 C61.9108719,110.553863 60.7000931,108.945893 58.6445973,108.945893 C56.7011612,108.945893 55.2934774,110.539965 55.2934774,112.514647 C55.2934774,114.644353 56.7438506,116.097299 58.7571906,116.097299 L58.7571906,116.097299 Z M53.5752281,115.928377 L53.5752281,111.118898 C53.5752281,109.637619 52.8292304,108.945893 51.4066053,108.945893 C50.3788574,108.945893 49.4498288,109.53819 48.9711736,110.102691 L48.9711736,106.520038 L47.915144,106.520038 L47.915144,115.928377 L48.9711736,115.928377 L48.9711736,110.948907 C49.3793913,110.39884 50.1680784,109.891538 50.9845136,109.891538 C51.9002018,109.891538 52.5191985,110.243816 52.5191985,111.442844 L52.5191985,115.928377 L53.5752281,115.928377 Z M39.8889985,116.097299 C41.6494037,116.097299 42.5640246,115.180521 42.5640246,114.037622 C42.5640246,111.386181 38.3543137,112.374056 38.3543137,110.878344 C38.3543137,110.272148 38.9316882,109.806542 39.8612504,109.806542 C40.7337155,109.806542 41.4802468,110.173253 41.8884644,110.667191 L42.3809937,109.933768 C41.831901,109.383167 41.0159993,108.945893 39.8612504,108.945893 C38.2417203,108.945893 37.3265658,109.848773 37.3265658,110.906676 C37.3265658,113.431425 41.5362767,112.415752 41.5362767,114.065954 C41.5362767,114.743247 40.9733099,115.237719 39.9311543,115.237719 C39.0021257,115.237719 38.1435347,114.786012 37.6926276,114.263742 L37.1430013,115.025497 C37.8335027,115.75892 38.776939,116.097299 39.8889985,116.097299 L39.8889985,116.097299 Z M36.3404401,107.450715 C36.3404401,106.759523 35.9183484,106.378378 35.4535673,106.378378 C35.030942,106.378378 34.7075696,106.731191 34.7075696,107.140668 C34.7075696,107.563508 34.9887862,107.859657 35.3831297,107.859657 C35.4535673,107.859657 35.5522866,107.845759 35.5805683,107.83186 C35.5245384,108.283567 35.1157872,108.846998 34.6654138,109.143147 L35.1862248,109.580956 C35.8340368,109.114815 36.3404401,108.311364 36.3404401,107.450715 L36.3404401,107.450715 Z M32.496791,116.097299 C33.1163213,116.097299 33.4962572,115.913944 33.7641333,115.66056 L33.4541013,114.869939 C33.3137599,115.025497 33.0320097,115.152189 32.7363854,115.152189 C32.2710707,115.152189 32.0464176,114.786012 32.0464176,114.278176 L32.0464176,110.046561 L33.4258196,110.046561 L33.4258196,109.114815 L32.0464176,109.114815 L32.0464176,107.253461 L30.9898543,107.253461 L30.9898543,109.114815 L29.8633871,109.114815 L29.8633871,110.046561 L30.9898543,110.046561 L30.9898543,114.503762 C30.9898543,115.5189 31.4967912,116.097299 32.496791,116.097299 L32.496791,116.097299 Z M28.033078,112.091806 L23.569365,112.091806 C23.6259285,111.047801 24.3436445,109.820441 25.7940177,109.820441 C27.3436438,109.820441 28.019204,111.075599 28.033078,112.091806 L28.033078,112.091806 Z M25.9210187,116.097299 C27.0330782,116.097299 27.9482328,115.730588 28.6243265,115.053829 L28.1179232,114.362637 C27.582171,114.912169 26.7940175,115.222752 26.019738,115.222752 C24.5554907,115.222752 23.6542103,114.150949 23.569365,112.867459 L29.0747,112.867459 L29.0747,112.599643 C29.0747,110.553863 27.8644548,108.945893 25.8084254,108.945893 C23.8649893,108.945893 22.4573055,110.539965 22.4573055,112.514647 C22.4573055,114.644353 23.9076787,116.097299 25.9210187,116.097299 L25.9210187,116.097299 Z M21.5416174,115.928377 L21.5416174,114.884372 L17.1776909,114.884372 L17.1776909,106.520038 L16.0085343,106.520038 L16.0085343,115.928377 L21.5416174,115.928377 Z" id="tagline" fill="#86AF49"></path>
                <g id="workmark" transform="translate(0.000000, 80.000000)">
                    <path d="M15.3151513,2.0942794 C15.3151513,2.58233698 15.1465281,2.99502094 14.8092816,3.33286584 C14.4720352,3.67071074 14.0691537,3.83963319 13.6011709,3.83963319 L9.69508854,3.83963319 L9.69508854,17.2678988 C9.69508854,17.8115512 9.49818357,18.280899 9.10010468,18.6754077 C8.70682835,19.0693819 8.22443785,19.2666363 7.65773574,19.2666363 C7.10971025,19.2666363 6.63639125,19.0693819 6.24311493,18.6754077 C5.84503604,18.280899 5.64813107,17.8115512 5.64813107,17.2678988 L5.64813107,3.83963319 L1.7420487,3.83963319 C1.25485564,3.83963319 0.842902692,3.66589966 0.505656236,3.31896716 C0.168409781,2.97203466 -0.000213447124,2.54491745 -0.000213447124,2.0381501 C-0.000213447124,1.56880228 0.168409781,1.16520592 0.505656236,0.827361021 C0.842902692,0.489516121 1.25485564,0.320593671 1.7420487,0.320593671 L13.6011709,0.320593671 C14.0691537,0.320593671 14.4720352,0.494327204 14.8092816,0.841259704 C15.1465281,1.18872677 15.3151513,1.60622181 15.3151513,2.0942794" id="Fill-21" fill="#90A7D0"></path>
                    <path d="M23.5400161,7.05065653 C23.5400161,7.59537797 23.3761954,8.0176841 23.0485541,8.3175749 C22.7203791,8.61800027 22.3126951,8.80563249 21.8260357,8.88100611 C21.2828127,8.95531061 20.7625354,9.10605786 20.2662708,9.3311096 C19.7700062,9.55616135 19.3623222,9.88491865 19.0437524,10.3163124 L19.0437524,17.6917018 C19.0437524,18.1797593 18.8751292,18.5977889 18.5378827,18.9447214 C18.2011699,19.2916539 17.7886833,19.465922 17.3014902,19.465922 L17.2454604,19.465922 C16.7582673,19.465922 16.3415118,19.2916539 15.9946602,18.9447214 C15.6483423,18.5977889 15.4749165,18.1797593 15.4749165,17.6917018 L15.4749165,7.27624284 C15.4749165,6.78818525 15.6483423,6.37496673 15.9946602,6.03712183 C16.3415118,5.69981149 16.7769439,5.53035448 17.3014902,5.53035448 C17.7886833,5.53035448 18.2011699,5.69981149 18.5378827,6.03712183 C18.8751292,6.37496673 19.0437524,6.78818525 19.0437524,7.27624284 L19.0437524,7.55742388 C19.2123756,7.33237213 19.3948729,7.1025093 19.5917779,6.86783539 C19.7886829,6.63316148 20.0085334,6.42200842 20.2523967,6.23491077 C20.4957265,6.04674399 20.7582664,5.89172022 21.0389494,5.76983947 C21.320166,5.64795871 21.6291307,5.58701833 21.9663771,5.58701833 C22.4909234,5.58701833 22.8841998,5.72760886 23.1467397,6.00932446 C23.4087461,6.2905055 23.5400161,6.63797257 23.5400161,7.05065653" id="Fill-24" fill="#90A7D0"></path>
                    <path d="M38.3436413,17.6917018 C38.3436413,18.1797593 38.1702155,18.5972544 37.823364,18.9447214 C37.477046,19.2916539 37.0506854,19.4653875 36.5448157,19.4653875 C36.0581563,19.4653875 35.6414007,19.2916539 35.2945492,18.9447214 C34.9482312,18.5972544 34.7748054,18.1797593 34.7748054,17.6917018 L34.7748054,17.5789086 C34.306289,18.1043857 33.6744855,18.5785446 32.8777941,19.0008507 C32.0816363,19.4231569 31.1216579,19.6343099 29.9973252,19.6343099 C28.4989264,19.6343099 27.3932703,19.2542344 26.6819577,18.4940834 C25.9695779,17.7339324 25.6136549,16.6877892 25.6136549,15.3551194 L25.6136549,7.27624284 C25.6136549,6.78818525 25.7870807,6.37496673 26.1333986,6.03712183 C26.4802502,5.69927693 26.9156823,5.53035448 27.4402286,5.53035448 C27.9274217,5.53035448 28.3393746,5.69927693 28.6766211,6.03712183 C29.0138676,6.37496673 29.1824908,6.78818525 29.1824908,7.27624284 L29.1824908,13.9476105 C29.1824908,14.4169583 29.2433232,14.8109325 29.3649881,15.1300676 C29.4871865,15.4492028 29.6558098,15.706863 29.8713914,15.9041173 C30.0864393,16.1008372 30.3489793,16.2419622 30.657944,16.3264235 C30.9669087,16.4108847 31.3089577,16.4531153 31.6835575,16.4531153 C32.376727,16.4531153 32.9855849,16.293815 33.5101312,15.9746799 C34.0346775,15.6555448 34.4562356,15.2984555 34.7748054,14.9050159 L34.7748054,7.27624284 C34.7748054,6.78818525 34.9482312,6.37496673 35.2945492,6.03712183 C35.6414007,5.69927693 36.0768329,5.53035448 36.6013792,5.53035448 C37.0880386,5.53035448 37.5005252,5.69927693 37.8377717,6.03712183 C38.1750181,6.37496673 38.3436413,6.78818525 38.3436413,7.27624284 L38.3436413,17.6917018 Z" id="Fill-26" fill="#90A7D0"></path>
                    <path d="M52.666477,14.9050159 C52.666477,15.5240418 52.535207,16.1008372 52.2732006,16.6359364 C52.0106607,17.1710357 51.631792,17.6307614 51.1349939,18.0151134 C50.6381957,18.4 50.0250688,18.7052365 49.294546,18.9302882 C48.5640232,19.1553399 47.7299786,19.2681331 46.7934794,19.2681331 C46.3436395,19.2681331 45.847375,19.2307136 45.304152,19.1553399 C44.7609291,19.0810354 44.2315802,18.9682423 43.7161054,18.817495 C43.2011643,18.6678169 42.7278453,18.4796501 42.2972157,18.255133 C41.8660525,18.0295467 41.5480163,17.7670754 41.3415062,17.46665 C41.172883,17.2410637 41.0885713,16.98768 41.0885713,16.706499 C41.0885713,16.2751053 41.2433205,15.9185506 41.5522852,15.636835 C41.8612499,15.3551194 42.2038326,15.2145289 42.5778987,15.2145289 C42.8591152,15.2145289 43.1029786,15.2802803 43.3089551,15.4112487 C43.852178,15.7303838 44.4466282,15.9933897 45.093373,16.1997316 C45.7395842,16.4066082 46.3623162,16.5092446 46.9621026,16.5092446 C47.7486552,16.5092446 48.3249625,16.3734652 48.689957,16.1008372 C49.0554852,15.8292783 49.2379825,15.4770001 49.2379825,15.0456064 C49.2379825,14.670342 49.0368086,14.3886264 48.6339272,14.2009942 C48.2310457,14.0133619 47.7347812,13.8583382 47.1445999,13.7364574 C46.5544186,13.6145767 45.9082074,13.4787972 45.2054328,13.3285845 C44.5031917,13.1783719 43.8569805,12.9533201 43.2667992,12.6528947 C42.676618,12.3524694 42.1798198,11.9397854 41.7774719,11.4143083 C41.3745905,10.8882966 41.172883,10.1751873 41.172883,9.27498031 C41.172883,8.7115491 41.2945478,8.17163873 41.5384112,7.65578378 C41.7822745,7.13992883 42.1424665,6.6844797 42.6200545,6.2905055 C43.098176,5.89599674 43.6787522,5.58220725 44.3623166,5.34753334 C45.0464146,5.11285943 45.8377699,4.99578976 46.7369159,4.99578976 C47.1867557,4.99578976 47.6600747,5.02839821 48.1563392,5.09414967 C48.6526038,5.15990113 49.1307254,5.26307212 49.5896367,5.4041972 C50.048548,5.54425316 50.4653035,5.71798669 50.8399032,5.92432867 C51.2145029,6.13120522 51.4957195,6.37496673 51.6830193,6.65614777 C51.8329659,6.86302431 51.9076724,7.09769822 51.9076724,7.36070406 C51.9076724,7.73596849 51.767331,8.05510363 51.4861144,8.3175749 C51.2054314,8.58004618 50.8772564,8.7115491 50.5026567,8.7115491 C50.2406504,8.7115491 50.0154637,8.6554198 49.8281638,8.54316121 C49.3975343,8.27962081 48.9151438,8.07808991 48.3809923,7.93749939 C47.8468409,7.7963743 47.3084205,7.72634633 46.7651976,7.72634633 C46.1093813,7.72634633 45.5896376,7.85731468 45.2054328,8.12085509 C44.8212279,8.38332636 44.6296591,8.70192693 44.6296591,9.07772593 C44.6296591,9.41503626 44.8260305,9.6689545 45.2193068,9.83787695 C45.6131168,10.0067994 46.1093813,10.1516664 46.7086341,10.2740818 C47.3084205,10.3959625 47.9546317,10.536553 48.6478012,10.6963879 C49.3415044,10.8556882 49.9871819,11.0951732 50.5869684,11.4143083 C51.1867548,11.7329089 51.6830193,12.1648372 52.0762957,12.709024 C52.469572,13.2532109 52.666477,13.98503 52.666477,14.9050159" id="Fill-28" fill="#90A7D0"></path>
                    <path d="M62.466368,17.9750211 C62.466368,18.2006074 62.4242122,18.4112259 62.3399006,18.6090148 C62.255589,18.8057346 62.110445,18.9794682 61.9044685,19.1291463 C61.698492,19.279359 61.4082039,19.3969632 61.0330706,19.4808899 C60.6584709,19.5658856 60.180883,19.6081163 59.5997732,19.6081163 C58.3543092,19.6081163 57.4034023,19.2937922 56.7523885,18.6651441 C56.1013748,18.0359614 55.778536,17.1122336 55.778536,15.8923569 L55.778536,8.79814858 L54.9071381,8.79814858 C54.4765086,8.79814858 54.1109804,8.64312481 53.8110872,8.33361184 C53.511194,8.02409887 53.361781,7.64402336 53.361781,7.1933853 C53.361781,6.78070134 53.511194,6.42414668 53.8110872,6.12372131 C54.1109804,5.8238305 54.4765086,5.67308325 54.9071381,5.67308325 L55.778536,5.67308325 L55.778536,3.56155263 C55.778536,3.07402961 55.9519618,2.65653456 56.2934772,2.3090675 C56.6403288,1.962135 57.0709584,1.78840147 57.5907021,1.78840147 C58.0736262,1.78840147 58.4855792,1.962135 58.8318971,2.3090675 C59.1739462,2.65653456 59.3468383,3.07402961 59.3468383,3.56155263 L59.3468383,5.67308325 L60.7523876,5.67308325 C61.1643406,5.67308325 61.5202637,5.82810702 61.8201569,6.13761999 C62.1200501,6.44766753 62.2694631,6.81812087 62.2694631,7.25004916 C62.2694631,7.68144289 62.1200501,8.04761972 61.8201569,8.34751053 C61.5202637,8.6479359 61.1643406,8.79814858 60.7523876,8.79814858 L59.3468383,8.79814858 L59.3468383,14.9349515 C59.3468383,15.4791384 59.4829109,15.864025 59.7545223,16.0890767 C60.0261338,16.314663 60.3025478,16.4269216 60.5837644,16.4269216 L60.73798,16.4269216 L60.8927291,16.4269216 C61.3985988,16.4269216 61.7876062,16.5771343 62.058684,16.8770251 C62.3308291,17.1774505 62.466368,17.5436273 62.466368,17.9750211" id="Fill-30" fill="#90A7D0"></path>
                    <path d="M74.4033984,10.8508771 C74.3847218,10.531742 74.3100153,10.1938971 74.1787453,9.83734239 C74.0474754,9.48078772 73.851104,9.15737607 73.588564,8.86657286 C73.3260241,8.57523509 72.9845087,8.33147358 72.5629506,8.13475377 C72.1413925,7.93749939 71.6403254,7.83860492 71.0592156,7.83860492 C70.4973161,7.83860492 70.0149256,7.93268831 69.6120441,8.12085509 C69.2096963,8.30795274 68.8772524,8.54743773 68.6147124,8.83824093 C68.3527061,9.12904414 68.146196,9.45299036 67.996783,9.80954502 C67.8463028,10.1660997 67.7529197,10.5130322 67.7155664,10.8508771 L74.4033984,10.8508771 Z M77.8041447,11.63936 C77.8041447,12.0707538 77.644593,12.4508293 77.3260232,12.779052 C77.0074534,13.1078093 76.614177,13.2719207 76.1456606,13.2719207 L67.7715963,13.2719207 C67.8276262,13.703849 67.9546272,14.1122564 68.1509986,14.4966084 C68.3479035,14.881495 68.6099099,15.2145289 68.9375512,15.4957099 C69.2657262,15.7774255 69.6590025,16.0030118 70.1179138,16.1713997 C70.5768251,16.3408567 71.0971025,16.4253179 71.6776787,16.4253179 C72.0522784,16.4253179 72.478639,16.3686541 72.9562269,16.2558609 C73.4343485,16.1430678 73.8884573,15.9746799 74.3190868,15.7490936 C74.5442735,15.636835 74.7779981,15.5807057 75.0218615,15.5807057 C75.3964612,15.5807057 75.7433128,15.711674 76.061349,15.9746799 C76.3799188,16.2371512 76.5389369,16.5846182 76.5389369,17.016012 C76.5389369,17.4853598 76.3329604,17.8419144 75.9210075,18.0856759 C75.2465146,18.4988945 74.5111892,18.7987853 73.7150315,18.9869521 C72.9188737,19.1740497 72.1083082,19.2681331 71.2844023,19.2681331 C70.2539864,19.2681331 69.2940079,19.0997452 68.4039334,18.7613657 C67.5138589,18.4235208 66.7459829,17.9450854 66.0997717,17.3255249 C65.4535605,16.706499 64.9476909,15.9559701 64.5821627,15.0734038 C64.2166345,14.191372 64.0341372,13.2061692 64.0341372,12.1177955 C64.0341372,11.1422149 64.207563,10.2174179 64.5538809,9.34500828 C64.9007325,8.47259867 65.383123,7.71725873 66.0010524,7.07845389 C66.6195155,6.44071819 67.3596434,5.93395084 68.2214361,5.5586864 C69.0826953,5.18288741 70.0293333,4.99578976 71.0592156,4.99578976 C71.8276253,4.99578976 72.544274,5.10377183 73.2091618,5.31920141 C73.8745832,5.53516556 74.4786386,5.84040201 75.0218615,6.23437621 C75.5650844,6.62888497 76.0378698,7.1115969 76.4407512,7.68411571 C76.8436327,8.25609996 77.1670051,8.89009371 77.4103348,9.58449328 C77.5042515,9.90362841 77.5928321,10.2409387 77.6771437,10.5974934 C77.7614553,10.9540481 77.8041447,11.3015151 77.8041447,11.63936 L77.8041447,11.63936 Z" id="Fill-32" fill="#90A7D0"></path>
                    <path d="M89.7374398,14.7393008 L89.7374398,9.925011 C89.4375466,9.47490751 88.9925094,9.10445416 88.4124668,8.81311639 C87.8270881,8.52231319 87.2363732,8.37691158 86.6328514,8.37691158 C86.1264481,8.37691158 85.6584653,8.47046041 85.2369072,8.65862719 C84.8153491,8.84625941 84.4498209,9.11835285 84.1499277,9.47490751 C83.8505681,9.83146218 83.612041,10.2537683 83.4428841,10.7412913 C83.2742609,11.2298835 83.1899493,11.7644482 83.1899493,12.3460546 C83.1899493,12.9281956 83.2742609,13.4627603 83.4428841,13.9508179 C83.612041,14.4388755 83.8505681,14.8563705 84.1499277,15.203303 C84.4498209,15.5507701 84.8153491,15.818587 85.2369072,16.0056846 C85.6584653,16.1938514 86.1264481,16.2874002 86.6328514,16.2874002 C87.2363732,16.2874002 87.8270881,16.1419986 88.4124668,15.8511954 C88.9925094,15.5598577 89.4375466,15.1894043 89.7374398,14.7393008 L89.7374398,14.7393008 Z M93.3062757,17.5259867 C93.3062757,18.0140443 93.1333836,18.4315393 92.7913345,18.7790064 C92.444483,19.1259389 92.014387,19.2996724 91.4941097,19.2996724 C91.0117192,19.2996724 90.5992326,19.1259389 90.2529146,18.7790064 C89.9108656,18.4315393 89.7374398,18.0140443 89.7374398,17.5259867 L89.7374398,17.3853962 C89.1942169,18.061086 88.5624134,18.5769409 87.8500336,18.9340302 C87.1339185,19.2905848 86.3655089,19.4685949 85.5410694,19.4685949 C84.6750077,19.4685949 83.8788499,19.3092946 83.1435246,18.9896249 C82.4124682,18.6704897 81.7758621,18.2107641 81.2417107,17.6104479 C80.7080929,17.0101317 80.2817322,16.264414 79.9727675,15.37276 C79.6638028,14.4811061 79.5090536,13.4723825 79.5090536,12.3460546 C79.5090536,11.2389711 79.6590003,10.2446807 79.9583598,9.36211436 C80.2582531,8.48008258 80.6798111,7.72955371 81.2139626,7.11052777 C81.7475804,6.4904327 82.388989,6.01734293 83.1291169,5.68858563 C83.8740473,5.35982833 84.6750077,5.19571696 85.5410694,5.19571696 C86.3468323,5.19571696 87.1104393,5.3694505 87.8361596,5.716383 C88.5576108,6.06385006 89.1942169,6.58451609 89.7374398,7.27891566 L89.7374398,1.95839305 C89.7374398,1.47087003 89.9108656,1.05284042 90.2529146,0.705907918 C90.5992326,0.358440853 91.0303958,0.18470732 91.5501395,0.18470732 C92.03253,0.18470732 92.444483,0.358440853 92.7913345,0.705907918 C93.1333836,1.05284042 93.3062757,1.47087003 93.3062757,1.95839305 L93.3062757,17.5259867 Z" id="Fill-34" fill="#90A7D0"></path>
                    <path d="M107.067212,6.23758359 C107.067212,5.44910064 106.805205,4.82954013 106.275857,4.37890208 C105.75131,3.92933315 105.091225,3.70374684 104.304139,3.70374684 L100.042133,3.70374684 L100.042133,8.77088578 L104.304139,8.77088578 C105.091225,8.77088578 105.75131,8.54583404 106.275857,8.09573054 C106.805205,7.64509249 107.067212,7.02606655 107.067212,6.23758359 M111.114169,6.23758359 C111.114169,7.06295151 110.973294,7.8418123 110.692611,8.57416596 C110.411395,9.30598506 110.004244,9.94425533 109.470093,10.4884422 C108.935941,11.0326291 108.280125,11.4688339 107.502644,11.7970566 C106.725163,12.1258139 105.831353,12.2899253 104.81908,12.2899253 L100.042133,12.2899253 L100.042133,17.1603444 C100.042133,17.7039967 99.845762,18.1685335 99.4519521,18.5534201 C99.0586757,18.9383067 98.5810878,19.13075 98.0186546,19.13075 C97.4754317,19.13075 97.0117178,18.9383067 96.6280466,18.5534201 C96.2438418,18.1685335 96.0512057,17.7039967 96.0512057,17.1603444 L96.0512057,2.43736303 C96.0512057,1.81726796 96.2721235,1.28751433 96.7123582,0.846498438 C97.1525929,0.405482548 97.6814082,0.18470732 98.2998712,0.18470732 L104.81908,0.18470732 C105.831353,0.18470732 106.729965,0.34454217 107.517052,0.663142741 C108.303604,0.982277876 108.964223,1.41848268 109.498375,1.97229173 C110.031992,2.52610077 110.434874,3.16918213 110.706485,3.90100122 C110.978097,4.63282032 111.114169,5.41168111 111.114169,6.23758359" id="Fill-36" fill="#FA9887"></path>
                    <path d="M121.080015,15.6651669 L121.080015,13.9759424 C120.780122,13.5771571 120.368169,13.2719207 119.853228,13.0746663 C119.333484,12.8731354 118.780123,12.7747755 118.20008,12.7747755 C117.483431,12.7747755 116.874574,12.9533201 116.377775,13.3098748 C115.876708,13.6712405 115.628576,14.1774733 115.628576,14.8392644 C115.628576,15.4818112 115.876708,15.9746799 116.377775,16.322147 C116.874574,16.6738905 117.483431,16.8470895 118.20008,16.8470895 C118.780123,16.8470895 119.333484,16.7487296 119.853228,16.5514752 C120.368169,16.3547554 120.780122,16.0591411 121.080015,15.6651669 L121.080015,15.6651669 Z M124.648851,17.3255249 C124.648851,17.8141171 124.480228,18.2316121 124.142982,18.5785446 C123.805735,18.9260117 123.393782,19.0997452 122.907123,19.0997452 L122.766248,19.0997452 L122.625373,19.0997452 C122.194743,19.0997452 121.829215,18.9447214 121.529855,18.6352085 C121.229962,18.3256955 121.080015,17.9547076 121.080015,17.5233139 C120.612033,18.0669662 120.002641,18.4940834 119.253442,18.8035964 C118.504242,19.1136439 117.679803,19.2681331 116.780657,19.2681331 C116.237434,19.2681331 115.685139,19.1740497 115.122706,18.9869521 C114.560807,18.7987853 114.054937,18.5224153 113.605097,18.1514274 C113.155257,17.7857851 112.78546,17.3212484 112.495172,16.7583518 C112.204884,16.1949205 112.05974,15.5240418 112.05974,14.7548032 C112.05974,13.9615092 112.204884,13.2863539 112.495172,12.7234573 C112.78546,12.1600261 113.155257,11.7003004 113.605097,11.3533679 C114.054937,11.0059009 114.560807,10.7530517 115.122706,10.5932169 C115.685139,10.4339166 116.237434,10.3537319 116.780657,10.3537319 C117.679803,10.3537319 118.509045,10.4943224 119.267849,10.7803145 C120.02612,11.0625647 120.630709,11.4848708 121.080015,12.0333342 L121.080015,10.1896205 C121.080015,9.49040989 120.808404,8.93178976 120.265181,8.51964036 C119.721958,8.10214532 119.001041,7.89526878 118.101361,7.89526878 C117.558138,7.89526878 117.033592,7.96102024 116.528256,8.09252316 C116.021852,8.22349151 115.534659,8.44907782 115.066143,8.76821296 C114.842023,8.89971588 114.626442,8.96493277 114.420465,8.96493277 C114.101895,8.96493277 113.797733,8.84305202 113.507445,8.59875594 C113.216623,8.35499443 113.071479,8.01714953 113.071479,7.59056689 C113.071479,7.34627081 113.136581,7.11640799 113.267851,6.89135624 C113.474361,6.55832242 113.802002,6.26698465 114.251842,6.02803423 C114.701148,5.78427271 115.193144,5.59129485 115.727295,5.44161673 C116.260913,5.29140405 116.795064,5.18342197 117.328682,5.10858291 C117.862834,5.03320929 118.326548,4.99578976 118.719824,4.99578976 C119.488234,4.99578976 120.227828,5.08025098 120.939674,5.24917343 C121.65152,5.41809588 122.283857,5.70408801 122.836685,6.10768437 C123.38898,6.51128073 123.829214,7.04103436 124.157389,7.69854896 C124.485031,8.35499443 124.648851,9.17180932 124.648851,10.1473899 L124.648851,17.3255249 Z" id="Fill-38" fill="#FA9887"></path>
                    <path d="M136.666458,7.05065653 C136.666458,7.59537797 136.502637,8.0176841 136.174996,8.3175749 C135.846821,8.61800027 135.439137,8.80563249 134.952478,8.88100611 C134.409255,8.95531061 133.888977,9.10605786 133.392713,9.3311096 C132.896448,9.55616135 132.489298,9.88491865 132.170194,10.3163124 L132.170194,17.6917018 C132.170194,18.1797593 132.001571,18.5977889 131.664858,18.9447214 C131.327078,19.2916539 130.915659,19.465922 130.428466,19.465922 L130.371902,19.465922 C129.884709,19.465922 129.467954,19.2916539 129.121102,18.9447214 C128.774784,18.5977889 128.601892,18.1797593 128.601892,17.6917018 L128.601892,7.27624284 C128.601892,6.78818525 128.774784,6.37496673 129.121102,6.03712183 C129.467954,5.69981149 129.903386,5.53035448 130.428466,5.53035448 C130.915659,5.53035448 131.327078,5.69981149 131.664858,6.03712183 C132.001571,6.37496673 132.170194,6.78818525 132.170194,7.27624284 L132.170194,7.55742388 C132.339351,7.33237213 132.521315,7.1025093 132.718754,6.86783539 C132.915125,6.63316148 133.134975,6.42200842 133.378839,6.23491077 C133.622168,6.04674399 133.884708,5.89172022 134.165391,5.76983947 C134.446608,5.64795871 134.755573,5.58701833 135.092819,5.58701833 C135.617365,5.58701833 136.010642,5.72760886 136.273182,6.00932446 C136.535722,6.2905055 136.666458,6.63797257 136.666458,7.05065653" id="Fill-40" fill="#FA9887"></path>
                    <path d="M148.042656,10.8508771 C148.024513,10.531742 147.949273,10.1938971 147.818003,9.83734239 C147.686733,9.48078772 147.490362,9.15737607 147.228355,8.86657286 C146.965815,8.57523509 146.623766,8.33147358 146.202208,8.13475377 C145.781184,7.93749939 145.279583,7.83860492 144.699007,7.83860492 C144.137107,7.83860492 143.654183,7.93268831 143.251302,8.12085509 C142.848954,8.30795274 142.51651,8.54743773 142.25397,8.83824093 C141.991964,9.12904414 141.785454,9.45299036 141.636041,9.80954502 C141.486094,10.1660997 141.392177,10.5130322 141.354824,10.8508771 L148.042656,10.8508771 Z M151.443402,11.63936 C151.443402,12.0707538 151.283851,12.4508293 150.965815,12.779052 C150.647245,13.1078093 150.253968,13.2719207 149.785452,13.2719207 L141.410854,13.2719207 C141.467418,13.703849 141.593885,14.1122564 141.790256,14.4966084 C141.987161,14.881495 142.249701,15.2145289 142.577343,15.4957099 C142.904984,15.7774255 143.29826,16.0030118 143.757705,16.1713997 C144.216616,16.3408567 144.73636,16.4253179 145.31747,16.4253179 C145.69207,16.4253179 146.11843,16.3686541 146.595485,16.2558609 C147.073606,16.1430678 147.527715,15.9746799 147.958878,15.7490936 C148.183531,15.636835 148.41779,15.5807057 148.661119,15.5807057 C149.035719,15.5807057 149.382571,15.711674 149.700607,15.9746799 C150.019177,16.2371512 150.178728,16.5846182 150.178728,17.016012 C150.178728,17.4853598 149.972218,17.8419144 149.560265,18.0856759 C148.885772,18.4988945 148.150447,18.7987853 147.354289,18.9869521 C146.558131,19.1740497 145.7481,19.2681331 144.92366,19.2681331 C143.893778,19.2681331 142.933266,19.0997452 142.043725,18.7613657 C141.15365,18.4235208 140.385241,17.9450854 139.739029,17.3255249 C139.092818,16.706499 138.586949,15.9559701 138.221954,15.0734038 C137.855892,14.191372 137.673395,13.2061692 137.673395,12.1177955 C137.673395,11.1422149 137.847354,10.2174179 138.193672,9.34500828 C138.53999,8.47259867 139.022381,7.71725873 139.640844,7.07845389 C140.258773,6.44071819 140.998901,5.93395084 141.860694,5.5586864 C142.722487,5.18288741 143.668591,4.99578976 144.699007,4.99578976 C145.467417,4.99578976 146.184065,5.10377183 146.848953,5.31920141 C147.513841,5.53516556 148.117896,5.84040201 148.661119,6.23437621 C149.204342,6.62888497 149.677128,7.1115969 150.080009,7.68411571 C150.48289,8.25609996 150.806263,8.89009371 151.050126,9.58449328 C151.143509,9.90362841 151.232623,10.2409387 151.316935,10.5974934 C151.401247,10.9540481 151.443402,11.3015151 151.443402,11.63936 L151.443402,11.63936 Z" id="Fill-42" fill="#FA9887"></path>
                    <path d="M166.945,17.3255249 C166.945,17.8135825 166.771574,18.2310775 166.424722,18.5785446 C166.078405,18.9254771 165.652044,19.0992106 165.146708,19.0992106 C164.659515,19.0992106 164.242759,18.9254771 163.895908,18.5785446 C163.54959,18.2310775 163.376164,17.8135825 163.376164,17.3255249 L163.376164,10.7102866 C163.376164,9.75288116 163.151511,9.09162461 162.701671,8.72544778 C162.251831,8.35980551 161.642973,8.17644982 160.875097,8.17644982 C160.519174,8.17644982 160.18673,8.22349151 159.877766,8.31704034 C159.568267,8.41112373 159.282782,8.53353905 159.020242,8.68321717 C158.758235,8.83342985 158.523977,9.0023523 158.318001,9.18998452 C158.111491,9.37761673 157.933796,9.57487111 157.783849,9.78121309 L157.783849,17.3255249 C157.783849,17.8135825 157.610957,18.2310775 157.264106,18.5785446 C156.917788,18.9254771 156.491427,19.0992106 155.985557,19.0992106 C155.498364,19.0992106 155.081609,18.9254771 154.734757,18.5785446 C154.388439,18.2310775 154.215547,17.8135825 154.215547,17.3255249 L154.215547,6.91006601 C154.215547,6.42200842 154.388439,6.0087899 154.734757,5.670945 C155.081609,5.3331001 155.517041,5.16417764 156.041587,5.16417764 C156.52878,5.16417764 156.941267,5.3331001 157.278513,5.670945 C157.61576,6.0087899 157.783849,6.42200842 157.783849,6.91006601 L157.783849,7.10678582 C158.009036,6.84431455 158.275845,6.58611979 158.58481,6.33273611 C158.893774,6.07935244 159.249697,5.85430069 159.652579,5.65704631 C160.05546,5.4603265 160.495695,5.30049165 160.973817,5.17807633 C161.450871,5.05673014 161.971148,4.99578976 162.533048,4.99578976 C164.03198,4.99578976 165.141905,5.38495287 165.863357,6.16381366 C166.584274,6.94267445 166.945,7.99843977 166.945,9.33057504 L166.945,17.3255249 Z" id="Fill-44" fill="#FA9887"></path>
                    <path d="M177.727815,17.9750211 C177.727815,18.2006074 177.685659,18.4112259 177.601348,18.6090148 C177.517036,18.8057346 177.371892,18.9794682 177.165382,19.1291463 C176.959939,19.279359 176.669651,19.3969632 176.294518,19.4808899 C175.919918,19.5658856 175.44233,19.6081163 174.86122,19.6081163 C173.615756,19.6081163 172.664849,19.2937922 172.013835,18.6651441 C171.362822,18.0359614 171.039983,17.1122336 171.039983,15.8923569 L171.039983,8.79814858 L170.168585,8.79814858 C169.737422,8.79814858 169.372427,8.64312481 169.072534,8.33361184 C168.773174,8.02409887 168.623228,7.64402336 168.623228,7.1933853 C168.623228,6.78070134 168.773174,6.42414668 169.072534,6.12372131 C169.372427,5.8238305 169.737422,5.67308325 170.168585,5.67308325 L171.039983,5.67308325 L171.039983,3.56155263 C171.039983,3.07402961 171.212875,2.65653456 171.555458,2.3090675 C171.901776,1.962135 172.332405,1.78840147 172.852149,1.78840147 C173.335073,1.78840147 173.747026,1.962135 174.093344,2.3090675 C174.435393,2.65653456 174.608285,3.07402961 174.608285,3.56155263 L174.608285,5.67308325 L176.013301,5.67308325 C176.425787,5.67308325 176.781711,5.82810702 177.081604,6.13761999 C177.381497,6.44766753 177.531444,6.81812087 177.531444,7.25004916 C177.531444,7.68144289 177.381497,8.04761972 177.081604,8.34751053 C176.781711,8.6479359 176.425787,8.79814858 176.013301,8.79814858 L174.608285,8.79814858 L174.608285,14.9349515 C174.608285,15.4791384 174.744358,15.864025 175.015969,16.0890767 C175.287581,16.314663 175.563995,16.4269216 175.845211,16.4269216 L175.99996,16.4269216 L176.154176,16.4269216 C176.660046,16.4269216 177.049053,16.5771343 177.320131,16.8770251 C177.591742,17.1774505 177.727815,17.5436273 177.727815,17.9750211" id="Fill-46" fill="#FA9887"></path>
                    <path d="M190.761323,15.0720674 C190.761323,15.6910933 190.630053,16.2678886 190.368047,16.8029879 C190.105507,17.3380872 189.726638,17.7978128 189.22984,18.1821649 C188.733042,18.5670515 188.119915,18.8722879 187.389392,19.0973397 C186.658869,19.3223914 185.824825,19.4351846 184.888326,19.4351846 C184.438486,19.4351846 183.942221,19.397765 183.398465,19.3223914 C182.855775,19.2480869 182.325893,19.1352938 181.811485,18.9845465 C181.296011,18.8348684 180.822692,18.6467016 180.391528,18.4221844 C179.960899,18.1965981 179.642329,17.9341269 179.436352,17.6337015 C179.267729,17.4081152 179.183418,17.1547315 179.183418,16.8735505 C179.183418,16.4421567 179.338167,16.0856021 179.647131,15.8038865 C179.956096,15.5221709 180.298679,15.3815803 180.673279,15.3815803 C180.953961,15.3815803 181.197291,15.4473318 181.403801,15.5783001 C181.946491,15.8974353 182.542008,16.1604411 183.188219,16.3667831 C183.83443,16.5736596 184.457696,16.6762961 185.056949,16.6762961 C185.843501,16.6762961 186.419275,16.5405166 186.784803,16.2678886 C187.150332,15.9963298 187.332829,15.6440516 187.332829,15.2126579 C187.332829,14.8373935 187.131121,14.5556778 186.728773,14.3680456 C186.325892,14.1804134 185.829627,14.0253897 185.239446,13.9035089 C184.649265,13.7816281 184.003054,13.6458487 183.300813,13.495636 C182.598038,13.3454233 181.951293,13.1203716 181.361646,12.8199462 C180.770931,12.5195208 180.2752,12.1068369 179.872318,11.5813598 C179.469437,11.0553481 179.267729,10.3422388 179.267729,9.44203178 C179.267729,8.87860057 179.389394,8.33869021 179.633257,7.82283526 C179.877121,7.30698031 180.237313,6.85153117 180.714901,6.45755697 C181.192489,6.06304821 181.773598,5.74925873 182.457163,5.51458482 C183.141261,5.27991091 183.932616,5.16284123 184.832296,5.16284123 C185.281602,5.16284123 185.754387,5.19544968 186.251185,5.26120114 C186.747984,5.3269526 187.225038,5.43012359 187.683949,5.57124868 C188.143394,5.71130463 188.56015,5.88503816 188.934749,6.09138014 C189.309349,6.29825669 189.590566,6.5420182 189.777332,6.82319924 C189.927812,7.03007578 190.002519,7.26474969 190.002519,7.52775553 C190.002519,7.90301996 189.861644,8.2221551 189.580961,8.48462638 C189.300278,8.74709765 188.972103,8.87860057 188.597503,8.87860057 C188.334963,8.87860057 188.11031,8.82247128 187.92301,8.71021269 C187.492381,8.44667228 187.00999,8.24514138 186.475839,8.10455086 C185.942221,7.96342578 185.403267,7.8933978 184.860044,7.8933978 C184.204228,7.8933978 183.684484,8.02436616 183.300813,8.28790656 C182.916608,8.55037784 182.723972,8.86897841 182.723972,9.2447774 C182.723972,9.58208774 182.92141,9.83600598 183.314687,10.0049284 C183.707963,10.1738509 184.204228,10.3187179 184.804014,10.4411332 C185.403267,10.563014 186.049478,10.7036045 186.742647,10.8634394 C187.436351,11.0227396 188.082028,11.2622246 188.682348,11.5813598 C189.281601,11.8999603 189.777332,12.3318886 190.171142,12.8760755 C190.564418,13.4202624 190.761323,14.1520815 190.761323,15.0720674" id="Fill-48" fill="#FA9887"></path>
                </g>
                <g id="symbol" transform="translate(62.000000, 0.000000)">
                    <path d="M57.0554695,38.8714079 C57.1221718,38.3919033 57.1755335,37.9075877 57.2144876,37.4195301 L52.9599528,37.4195301 L52.9391417,37.6264066 C54.4370069,37.7060568 55.8372201,38.15028 57.0554695,38.8714079 L57.0554695,38.8714079 Z M24.2102261,58.0457096 C26.9588914,59.1330143 29.9551554,59.7311922 33.0933618,59.7311922 C38.7187607,59.7311922 43.8905845,57.8088975 47.9951727,54.5886796 C47.8809785,54.5245318 47.7689188,54.4577113 47.6579263,54.3882178 L43.0207875,55.3739552 L43.9503497,52.2686687 C40.8254838,54.3026875 37.0976298,55.4851446 33.0933618,55.4851446 C31.0661477,55.4851446 29.1104384,55.1815119 27.2678562,54.6186152 C26.4604924,55.9363173 25.4231394,57.0979264 24.2102261,58.0457096 L24.2102261,58.0457096 Z M20.2694586,56.049645 L20.312148,56.0769078 C21.6851466,55.4044254 22.8633748,54.3951672 23.7390416,53.1560462 C23.6232465,53.0935021 23.5079851,53.030958 23.3932572,52.9673448 C22.5368007,54.1647698 21.4791702,55.2087747 20.2694586,56.049645 L20.2694586,56.049645 Z M8.97116869,37.4195301 L8.97116869,37.4211338 L8.97330316,37.4195301 L8.97116869,37.4195301 Z" id="Fill-1" fill="#FA9887"></path>
                    <path d="M17.4572927,16.5715062 C11.9535586,21.0190846 8.43755088,27.8299737 8.43755088,35.4491245 C8.43755088,36.0986207 8.46316454,36.741702 8.51385823,37.3783686 L9.4236766,37.3783686 L10.6515312,34.0827771 L12.6990227,36.4043917 C12.6835478,36.0879294 12.6760771,35.7698634 12.6760771,35.4491245 C12.6760771,29.5592905 15.2198332,24.264427 19.2662571,20.604797 C18.4455529,19.3918696 17.8265562,18.0314024 17.4572927,16.5715062" id="Fill-3" fill="#90A7D0"></path>
                    <path d="M56.6541889,31.3586353 C55.3254806,22.9836099 49.7086195,16.0230428 42.1157717,12.8295532 L44.9882364,16.623359 L41.5218551,17.2215369 C46.8756426,19.8473188 50.8836459,24.8043374 52.2278292,30.7716833 C52.4097929,30.7641994 52.5922902,30.7593883 52.7758547,30.7593883 C54.1291095,30.7593883 55.4311369,30.9700068 56.6541889,31.3586353" id="Fill-5" fill="#86AF49"></path>
                    <path d="M32.9882391,3.75905908 C37.8671067,3.75905908 41.8436266,7.62235828 42.0383971,12.4596344 L45.2187593,16.6602439 L40.8046727,17.4214641 C39.2315674,20.1055135 36.3206823,21.9080657 32.9882391,21.9080657 C27.9850385,21.9080657 23.9295431,17.8448393 23.9295431,12.8338297 C23.9295431,7.82282005 27.9850385,3.75905908 32.9882391,3.75905908 M32.9882391,0 C25.9012609,0 20.1771427,5.75993481 20.1771427,12.8338297 C20.1771427,19.9077246 25.9012609,25.6671248 32.9882391,25.6671248 C40.0752172,25.6671248 45.7993354,19.9077246 45.7993354,12.8338297 C45.7993354,5.75993481 40.0752172,0 32.9882391,0" id="Fill-7" fill="#86AF49"></path>
                    <path d="M13.2443801,33.6775771 C12.3441669,33.6775771 11.465832,33.7705913 10.6189805,33.9475323 L13.7070268,37.4489311 C18.4951794,37.6894853 22.3025424,41.6554209 22.3025424,46.5114068 C22.3025424,51.522951 18.2475807,55.5861774 13.2443801,55.5861774 C8.24117953,55.5861774 4.18621779,51.522951 4.18621779,46.5114068 C4.18621779,43.0741556 6.09443508,40.0838006 8.90660094,38.5437197 L10.6189805,33.9480668 C4.79614295,35.1620633 0.433283737,40.3355806 0.433283737,46.5114068 C0.433283737,53.5863708 6.1579356,59.3452365 13.2443801,59.3452365 C20.3308246,59.3452365 26.0549429,53.5863708 26.0549429,46.5114068 C26.0549429,39.4369773 20.3308246,33.6775771 13.2443801,33.6775771" id="Fill-9" fill="#90A7D0"></path>
                    <path d="M52.1984802,33.6775771 C45.1120357,33.6775771 39.3873838,39.4369773 39.3873838,46.5114068 C39.3873838,49.8577819 40.6691338,52.9096118 42.7683863,55.1970143 L44.1312462,50.6430574 C43.4973082,49.4039364 43.1397843,47.9996349 43.1397843,46.5114068 C43.1397843,41.5003971 47.194746,37.4371707 52.1984802,37.4371707 C57.2016808,37.4371707 61.2571762,41.5003971 61.2571762,46.5114068 C61.2571762,51.522951 57.2016808,55.5861774 52.1984802,55.5861774 C50.4380751,55.5861774 48.7945322,55.0826174 47.4049914,54.2123461 L42.7689199,55.1970143 C45.108834,57.7452843 48.4642228,59.3452365 52.1984802,59.3452365 C59.2849247,59.3452365 65.0095766,53.5863708 65.0095766,46.5114068 C65.0095766,39.4369773 59.2849247,33.6775771 52.1984802,33.6775771" id="Fill-11" fill="#FA9887"></path>
                    <path d="M20.0656166,50.0806954 C18.6670043,52.1948988 16.2715939,53.5895782 13.5501431,53.5895782 C11.035736,53.5895782 8.79881014,52.398568 7.37031526,50.5500432 C7.47543797,50.507278 7.56828747,50.4693239 7.64032588,50.43725 C8.0874976,50.2394611 8.51385823,50.0357919 8.97010146,49.8396067 L9.0282658,49.7882885 L10.5762911,49.1489491 C10.8553732,49.0121005 10.8473689,48.9591786 11.0501437,48.7704773 C11.4530251,48.396282 11.7102289,48.5962092 11.6227156,47.6425457 C11.5944338,47.3378438 11.2160988,46.8946897 11.2155652,46.3927334 C10.9001971,46.3863186 10.8841885,46.2473318 10.7795994,46.02228 C10.6798129,45.811127 10.6622035,45.6165454 10.5848289,45.4102034 C10.471702,45.1113818 10.1355228,44.3437468 10.7171662,44.2945669 C10.5869634,44.0256808 10.5336016,43.6060475 10.4759709,43.2371979 C10.4023317,42.7550205 10.4647649,42.4839962 10.533068,42.0542062 L10.5384042,41.9050626 C10.537337,41.9007861 10.5341353,41.8884911 10.533068,41.88368 L10.5250638,41.8377075 C10.5095888,41.6180014 10.6077745,41.4913095 10.6691406,41.3902768 C10.8329612,41.1240636 10.6296528,41.2250963 10.8607094,41.0518973 C11.0853625,40.8835094 11.2662589,40.8108086 11.5661521,40.8102741 C11.588564,40.5280239 11.9450207,40.2420318 12.1947539,40.1837642 C12.247582,40.3425299 12.1867496,40.2543268 12.4146044,40.1859025 C12.6947538,40.1019758 13.1606021,40.0923537 13.4983822,40.0923537 L13.4359489,40.120151 C13.2950738,40.2035431 13.3607088,40.1249621 13.318553,40.2265294 C13.8479019,40.2259948 14.5186594,40.363378 14.9135366,40.5162635 C15.8036111,40.8599886 16.4044648,41.7623338 16.5490752,42.6454347 C16.6232481,43.0923308 16.6301851,43.8690534 16.4290112,44.2854793 C16.6077732,44.2849447 16.5752225,44.2715806 16.6910175,44.3261062 C16.6867486,44.5035817 16.6776771,44.6805226 16.6670047,44.856929 L16.6376558,44.9381828 C16.5778906,45.1210039 16.4455534,46.170889 16.1611351,46.3387424 C16.0650839,46.3938025 16.0533443,46.356383 15.9380828,46.2959772 C15.9327466,46.5253054 15.7486485,47.0609393 15.6691394,47.2336037 C15.5933657,47.3998533 15.5303988,47.4811072 15.499449,47.690122 C15.4172718,48.2583643 15.5677521,48.2850925 15.6952867,48.371692 C15.8201533,48.4572223 15.900196,48.5267157 15.9583603,48.586587 C15.8500359,48.9212245 18.7091601,49.5883613 20.0656166,50.0806954" id="Fill-13" fill="#90A7D0"></path>
                    <path d="M58.6931426,50.3448547 C57.272652,52.4050671 54.89912,53.7559122 52.2096862,53.7559122 C49.8687049,53.7559122 47.7667843,52.7327553 46.3244154,51.1087477 L46.6947461,50.5351598 C48.1685985,49.6974968 50.1066984,50.1219412 50.5784166,48.3600159 C50.274788,47.5581689 49.7006153,47.3079926 49.5778832,46.4505508 C48.6344469,46.9974105 50.1499215,46.6707914 49.0383956,46.9156221 C48.2369016,46.0234336 48.3345537,43.8039209 48.8564319,42.5279149 C49.219292,41.6400029 51.1926107,40.1565858 52.922066,40.7724044 C53.4354063,40.9552255 54.7939972,42.2590288 55.5111796,43.1490791 C55.4903685,43.3901678 55.4946374,43.6285836 55.5399949,43.9258016 C55.5704112,44.1251943 55.5997601,44.3347436 55.6419159,44.5416202 L55.6328444,44.5555188 C55.3201444,45.0184519 55.4434101,45.5433944 55.6141678,46.0250373 C55.5981593,46.0635259 55.5826844,46.0998763 55.5677431,46.1324848 L55.0431968,47.1599181 C54.5335918,47.9398481 55.1419161,47.3224258 54.1259078,47.6672201 C54.985566,48.4204217 55.5101123,48.7978244 55.9295359,49.004701 L58.1483188,49.744004 L58.6931426,50.3448547 Z" id="Fill-15" fill="#FA9887"></path>
                    <path d="M38.2107566,17.755812 C36.8452286,19.353626 34.8180145,20.3660915 32.5538742,20.3660915 C30.4065961,20.3660915 28.4722315,19.4546587 27.1141742,17.9985044 C27.4967782,17.7274801 28.0309296,17.6227054 28.7459775,17.2121597 C29.0650809,17.028804 29.1317832,16.9218911 29.2929357,16.8288768 C29.2310361,16.6038251 29.0634801,16.3044688 29.151527,15.967693 C29.2262335,15.6784935 30.1899473,15.690254 30.0976314,15.0033383 C30.050673,14.6505256 29.7710573,14.7451435 29.6787414,14.4511329 L29.6002996,14.5350596 C29.4823701,14.4554095 29.4092644,14.3019894 29.3308226,14.1581915 C29.2406412,13.9962184 29.1718045,13.9261904 29.0869593,13.7941529 C28.8366925,13.4017824 28.7918686,12.6822583 28.875113,12.1792329 C28.9039284,12.0044302 28.9210041,11.8135906 28.9487523,11.6692582 C29.0986989,10.8882591 29.6883465,9.79240145 30.1392536,9.18353224 C30.4882396,8.71151159 30.8489653,8.28920547 31.5704166,8.14647669 C31.6141732,8.13738909 31.6734048,8.13097431 31.7112917,8.12242128 C31.7240985,8.11974845 31.7347708,8.11867933 31.7459768,8.11493737 L31.9572895,8.03849462 C32.2774601,7.96686295 32.4514196,8.1085226 32.5832232,8.13364714 L33.0954963,8.17748144 C33.3009391,8.2159701 33.3735111,8.25125137 33.5293275,8.33624716 C33.7305014,8.4463675 33.7358376,8.45224771 33.9001919,8.60459865 C34.0277266,8.72166832 34.0922943,8.76764089 34.1979506,8.9098351 C34.6605973,9.532603 35.0538736,11.1234676 35.5458692,12.1364677 C35.5549407,12.7196778 35.6477902,13.2916621 35.8521659,13.7700975 C35.803073,13.976974 35.7208959,14.1779704 35.5954957,14.4014184 C35.4668938,14.6270047 35.1787402,15.368446 35.1291137,15.628779 C35.2870646,15.7250007 35.275325,15.7731115 35.4871713,15.8687986 C35.635517,15.9366883 35.7593164,15.9874719 35.945549,15.9954904 C35.8233505,16.0804862 35.6824754,16.0473432 35.5090496,16.0409284 C35.4855704,16.1403574 35.4738308,15.9954904 35.5255918,16.0901084 C35.6051008,16.23551 35.6008319,16.0216841 35.5528063,16.1248551 L35.0079825,16.0115273 C35.1696687,16.0644493 35.3345566,16.1307353 35.5026462,16.207178 C35.0821554,16.3189021 38.5826882,17.4815803 38.19208,17.7034247 L38.2107566,17.755812 Z" id="Fill-17" fill="#86AF49"></path>
                </g>
            </g>
        </g>
    </g>
</svg>